<svg width="26" height="17" viewBox="0 0 26 17" fill="none" xmlns="http://www.w3.org/2000/svg">
<g clip-path="url(#clip0_263_891)">
<path d="M10.4938 7.60022C10.4938 7.60022 12.9539 7.41164 12.9539 4.43283C12.9539 1.45381 10.9412 0 8.39184 0H0.00274658V16.6472H8.39184C8.39184 16.6472 13.5131 16.8142 13.5131 11.7337C13.5131 11.7337 13.7364 7.60022 10.4938 7.60022ZM7.788 2.95884H8.39184C8.39184 2.95884 9.53217 2.95884 9.53217 4.69091C9.53217 6.42276 8.86154 6.67386 8.10086 6.67386H3.69909V2.95884H7.788ZM8.15478 13.6884H3.69909V9.23967H8.39184C8.39184 9.23967 10.0914 9.21666 10.0914 11.5259C10.0914 13.473 8.82201 13.6737 8.15478 13.6884ZM20.3431 4.23553C14.1433 4.23553 14.1488 10.6319 14.1488 10.6319C14.1488 10.6319 13.7234 16.9954 20.3431 16.9954C20.3431 16.9954 25.8595 17.3208 25.8595 12.5686H23.0225C23.0225 12.5686 23.1171 14.3582 20.4378 14.3582C20.4378 14.3582 17.6003 14.5546 17.6003 11.462H25.9541C25.9541 11.4619 26.8682 4.23553 20.3431 4.23553ZM17.5691 9.23967C17.5691 9.23967 17.9156 6.6738 20.4062 6.6738C22.8963 6.6738 22.8651 9.23967 22.8651 9.23967H17.5691ZM23.5259 3.03071H16.8746V0.980731H23.5259V3.03071Z" fill="white"/>
</g>
<defs>
<clipPath id="clip0_263_891">
<rect width="26" height="17" fill="white"/>
</clipPath>
</defs>
</svg>
