<svg width="30" height="30" viewBox="0 0 30 30" fill="none" xmlns="http://www.w3.org/2000/svg">
<path fill-rule="evenodd" clip-rule="evenodd" d="M15 0C6.71909 0 0 6.71909 0 15C0 23.2809 6.71909 30 15 30C23.2646 30 30 23.2809 30 15C30 6.71909 23.2646 0 15 0ZM24.9078 6.91432C26.6974 9.09436 27.7712 11.8763 27.8037 14.8861C27.3807 14.8048 23.1507 13.9425 18.8883 14.4794C18.7907 14.2679 18.7093 14.0401 18.6117 13.8124C18.3514 13.1942 18.0586 12.5597 17.7657 11.9577C22.4837 10.038 24.6312 7.27223 24.9078 6.91432ZM15 2.21258C18.2538 2.21258 21.231 3.43276 23.4924 5.43384C23.2646 5.75922 21.3286 8.34599 16.7733 10.0542C14.6746 6.19848 12.3482 3.0423 11.9903 2.55423C12.9501 2.32646 13.9588 2.21258 15 2.21258ZM9.54994 3.41648C9.89156 3.87202 12.1692 7.04447 14.3004 10.8188C8.31345 12.4132 3.02603 12.3807 2.45662 12.3807C3.28633 8.41106 5.97071 5.10846 9.54994 3.41648ZM2.18004 15.0163C2.18004 14.8861 2.18004 14.756 2.18004 14.6258C2.73319 14.6421 8.94794 14.7234 15.3416 12.8037C15.7159 13.5195 16.0575 14.2516 16.3829 14.9837C16.2202 15.0325 16.0412 15.0814 15.8785 15.1301C9.27332 17.2613 5.75922 23.0857 5.46637 23.5737C3.43275 21.3124 2.18004 18.3026 2.18004 15.0163ZM15 27.8199C12.039 27.8199 9.30586 26.8113 7.14208 25.1193C7.36985 24.6475 9.97284 19.6367 17.1963 17.115C17.2288 17.0987 17.2451 17.0987 17.2777 17.0825C19.0835 21.7516 19.8157 25.6724 20.0108 26.795C18.4653 27.462 16.7733 27.8199 15 27.8199ZM22.1421 25.6237C22.0119 24.8427 21.3286 21.1009 19.6529 16.4967C23.6714 15.8622 27.1854 16.9035 27.6248 17.0499C27.0716 20.6128 25.0217 23.6876 22.1421 25.6237Z" fill="white"/>
</svg>
