<svg width="160" height="33" viewBox="0 0 160 33" fill="none" xmlns="http://www.w3.org/2000/svg">
<g clip-path="url(#clip0_31_150)">
<path d="M3.24254 0H0.557717C0.246433 0 0 0.247337 0 0.559763V32.4272C0 32.7396 0.246433 32.987 0.557717 32.987H7.85992C8.1712 32.987 8.41764 32.7396 8.41764 32.4272V29.7325C8.41764 29.4201 8.1712 29.1728 7.85992 29.1728H3.80026V0.559763C3.80026 0.247337 3.55383 0 3.24254 0Z" fill="white"/>
<path d="M10.9728 0.559763V32.4272C10.9728 32.7396 11.2192 32.987 11.5305 32.987H21.8677C22.179 32.987 22.4254 32.7396 22.4254 32.4272V0.559763C22.4254 0.247337 22.179 0 21.8677 0H11.5305C11.2322 0 10.9728 0.247337 10.9728 0.559763ZM14.773 29.1728V3.8142H18.6252V29.1728H14.773Z" fill="white"/>
<path d="M41.5045 0.559763V32.4272C41.5045 32.7396 41.7509 32.987 42.0622 32.987H52.3995C52.7107 32.987 52.9572 32.7396 52.9572 32.4272V0.559763C52.9572 0.247337 52.7107 0 52.3995 0H42.0622C41.7509 0 41.5045 0.247337 41.5045 0.559763ZM45.3048 29.1728V3.8142H49.1569V29.1728H45.3048Z" fill="white"/>
<path d="M87.3281 0.559763V32.4272C87.3281 32.7396 87.5746 32.987 87.8858 32.987H98.2231C98.5344 32.987 98.7808 32.7396 98.7808 32.4272V0.559763C98.7808 0.247337 98.5344 0 98.2231 0H87.8858C87.5875 0 87.3281 0.247337 87.3281 0.559763ZM91.1284 29.1728V3.8142H94.9805V29.1728H91.1284Z" fill="white"/>
<path d="M79.7147 14.9964H75.8625V0.559763C75.8625 0.247337 75.6161 0 75.3048 0H72.62C72.3087 0 72.0623 0.247337 72.0623 0.559763V32.4272C72.0623 32.7396 72.3087 32.987 72.62 32.987H75.3048C75.6161 32.987 75.8625 32.7396 75.8625 32.4272V18.8106H79.7147V32.4272C79.7147 32.7396 79.9611 32.987 80.2724 32.987H82.9572C83.2685 32.987 83.5149 32.7396 83.5149 32.4272V0.559763C83.5149 0.247337 83.2685 0 82.9572 0H80.2724C79.9611 0 79.7147 0.247337 79.7147 0.559763V14.9964Z" fill="white"/>
<path d="M26.1997 0.559763V32.4272C26.1997 32.7396 26.4461 32.987 26.7574 32.987H37.0946C37.4059 32.987 37.6524 32.7396 37.6524 32.4272V18.9538C37.6524 18.6414 37.4059 18.3941 37.0946 18.3941H32.6199C32.3087 18.3941 32.0622 18.6414 32.0622 18.9538V21.6485C32.0622 21.9609 32.3087 22.2083 32.6199 22.2083H33.8521V29.1598H30V3.8142H33.8521V14.0331C33.8521 14.3456 34.0985 14.5929 34.4098 14.5929H37.0946C37.4059 14.5929 37.6524 14.3456 37.6524 14.0331V0.559763C37.6524 0.247337 37.4059 0 37.0946 0H26.7574C26.4591 0 26.1997 0.247337 26.1997 0.559763Z" fill="white"/>
<path d="M56.7964 0.559763V32.4272C56.7964 32.7396 57.0428 32.987 57.3541 32.987H67.6913C68.0026 32.987 68.249 32.7396 68.249 32.4272V18.9538C68.249 18.6414 68.0026 18.3941 67.6913 18.3941H65.0065C64.6952 18.3941 64.4488 18.6414 64.4488 18.9538V29.1728H60.5966V3.8142H64.4488V14.0331C64.4488 14.3456 64.6952 14.5929 65.0065 14.5929H67.6913C68.0026 14.5929 68.249 14.3456 68.249 14.0331V0.559763C68.249 0.247337 68.0026 0 67.6913 0H57.3541C57.0428 0 56.7964 0.247337 56.7964 0.559763Z" fill="white"/>
<path d="M102.581 0.560086V32.4275C102.581 32.74 102.827 32.9873 103.139 32.9873H105.824C106.135 32.9873 106.381 32.74 106.381 32.4275V26.0228H113.463C113.774 26.0228 114.021 25.7755 114.021 25.463V0.547068C114.021 0.234642 113.774 -0.0126953 113.463 -0.0126953H103.126C102.827 0.000322439 102.581 0.24766 102.581 0.560086ZM106.381 3.81452H110.233V22.2086H106.381V3.81452Z" fill="white"/>
<path d="M117.964 0.560086V32.4275C117.964 32.74 118.21 32.9873 118.521 32.9873H121.206C121.517 32.9873 121.764 32.74 121.764 32.4275V26.0228H128.846C129.157 26.0228 129.403 25.7755 129.403 25.463L129.416 0.547068C129.416 0.234642 129.17 -0.0126953 128.859 -0.0126953H118.521C118.223 0.000322439 117.964 0.24766 117.964 0.560086ZM121.764 3.81452H125.616V22.2086H121.764V3.81452Z" fill="white"/>
<path d="M160 0.559763C160 0.247337 159.754 0 159.442 0H149.105C148.794 0 148.547 0.247337 148.547 0.559763V32.4272C148.547 32.7396 148.794 32.987 149.105 32.987H151.79C152.101 32.987 152.348 32.7396 152.348 32.4272V18.8106H154.345L156.122 32.4923C156.161 32.7657 156.394 32.974 156.68 32.974H159.352C159.689 32.974 159.948 32.6746 159.909 32.3491L158.145 18.8106H159.429C159.741 18.8106 159.987 18.5633 159.987 18.2509L160 0.559763ZM152.348 3.8142H156.2V14.9964H152.348V3.8142Z" fill="white"/>
<path d="M133.774 0C133.463 0 133.217 0.247337 133.217 0.559763V32.4272C133.217 32.7396 133.463 32.987 133.774 32.987H144.099C144.41 32.987 144.656 32.7396 144.656 32.4272V29.7325C144.656 29.4201 144.41 29.1728 144.099 29.1728H137.017V18.8106H144.099C144.41 18.8106 144.656 18.5633 144.656 18.2509V15.5562C144.656 15.2438 144.41 14.9964 144.099 14.9964H137.017V3.8142H144.656V0.559763C144.656 0.247337 144.41 0 144.099 0H133.774V0Z" fill="white"/>
</g>
<defs>
<clipPath id="clip0_31_150">
<rect width="160" height="33" fill="white"/>
</clipPath>
</defs>
</svg>
